<svg width="23" height="24" viewBox="0 0 23 24" fill="none" xmlns="http://www.w3.org/2000/svg">
<g clip-path="url(#clip0_23_252)">
<path d="M11.5 12C12.2582 12 12.9993 11.7752 13.6297 11.354C14.2601 10.9327 14.7514 10.3341 15.0415 9.63361C15.3317 8.93316 15.4076 8.1624 15.2597 7.41881C15.1118 6.67521 14.7467 5.99218 14.2106 5.45608C13.6745 4.91998 12.9914 4.55489 12.2478 4.40698C11.5043 4.25907 10.7335 4.33498 10.033 4.62512C9.3326 4.91525 8.73391 5.40658 8.3127 6.03697C7.89149 6.66736 7.66667 7.40849 7.66667 8.16665C7.66667 9.18332 8.07053 10.1583 8.78942 10.8772C9.50831 11.5961 10.4833 12 11.5 12ZM11.5 6.24999C11.8791 6.24999 12.2496 6.3624 12.5648 6.573C12.88 6.78361 13.1257 7.08295 13.2708 7.43318C13.4158 7.7834 13.4538 8.16878 13.3798 8.54058C13.3059 8.91237 13.1233 9.25389 12.8553 9.52194C12.5872 9.78999 12.2457 9.97254 11.8739 10.0465C11.5021 10.1204 11.1167 10.0825 10.7665 9.93742C10.4163 9.79236 10.117 9.54669 9.90635 9.2315C9.69574 8.9163 9.58333 8.54574 9.58333 8.16665C9.58333 7.65832 9.78527 7.17081 10.1447 6.81137C10.5042 6.45192 10.9917 6.24999 11.5 6.24999ZM15.3333 21.6121L23 23.4789V13.4212C22.9998 12.8039 22.8009 12.2031 22.4328 11.7076C22.0647 11.2121 21.5468 10.8482 20.9559 10.6698L18.9434 9.99899C19.0905 9.40124 19.1655 8.788 19.1667 8.1724C19.1667 6.13908 18.3589 4.18903 16.9212 2.75125C15.4834 1.31347 13.5333 0.505737 11.5 0.505737C9.46667 0.505737 7.51663 1.31347 6.07885 2.75125C4.64107 4.18903 3.83333 6.13908 3.83333 8.1724C3.83617 8.56142 3.8682 8.94968 3.92917 9.33391C3.49396 9.1604 3.02286 9.09619 2.55709 9.14688C2.09132 9.19757 1.64507 9.36163 1.25738 9.62469C0.869683 9.88776 0.552357 10.2418 0.333161 10.6559C0.113964 11.07 -0.000424743 11.5315 1.18511e-06 12V21.3457L7.65038 23.5316L15.3333 21.6121ZM7.43379 4.10715C8.51407 3.04221 9.9714 2.44729 11.4883 2.452C13.0053 2.4567 14.4589 3.06065 15.5325 4.13227C16.6062 5.2039 17.2129 6.65637 17.2204 8.17329C17.228 9.69021 16.6358 11.1487 15.5729 12.2309L11.5 16.2167L7.43379 12.2386C6.35554 11.1603 5.74979 9.69781 5.74979 8.17288C5.74979 6.64796 6.35554 5.18548 7.43379 4.10715ZM1.91667 12C1.91546 11.8419 1.95396 11.6861 2.02864 11.5468C2.10332 11.4075 2.21178 11.2891 2.34408 11.2027C2.48248 11.1118 2.64191 11.0581 2.80706 11.0467C2.97221 11.0353 3.13751 11.0666 3.28708 11.1375L4.66133 11.6339C5.02901 12.362 5.51002 13.0271 6.08638 13.6042L11.5 18.9L16.9213 13.5975C17.4544 13.0652 17.9064 12.4576 18.263 11.7939L20.3876 12.5041C20.5877 12.5613 20.7637 12.6821 20.8891 12.8483C21.0144 13.0144 21.0823 13.2169 21.0824 13.425V21.0428L15.3333 19.6379L7.68583 21.5546L1.91667 19.9024V12Z" fill="black"/>
</g>
<defs>
<clipPath id="clip0_23_252">
<rect width="23" height="23" fill="white" transform="translate(0 0.5)"/>
</clipPath>
</defs>
</svg>
