<svg width="30" height="30" viewBox="0 0 30 30" fill="none" xmlns="http://www.w3.org/2000/svg">
<g clip-path="url(#clip0_90_305)">
<path d="M23.75 0H6.25C2.8 0 0 2.8 0 6.25V23.75C0 27.2 2.8 30 6.25 30H23.75C27.2 30 30 27.2 30 23.75V6.25C30 2.8 27.2 0 23.75 0ZM8.75 22.5C8.75 23.1875 8.1875 23.75 7.5 23.75C6.8125 23.75 6.25 23.1875 6.25 22.5V15C6.25 14.3125 6.8125 13.75 7.5 13.75C8.1875 13.75 8.75 14.3125 8.75 15V22.5ZM13.75 22.5C13.75 23.1875 13.1875 23.75 12.5 23.75C11.8125 23.75 11.25 23.1875 11.25 22.5V11.25C11.25 10.5625 11.8125 10 12.5 10C13.1875 10 13.75 10.5625 13.75 11.25V22.5ZM18.75 22.5C18.75 23.1875 18.1875 23.75 17.5 23.75C16.8125 23.75 16.25 23.1875 16.25 22.5V7.5C16.25 6.8125 16.8125 6.25 17.5 6.25C18.1875 6.25 18.75 6.8125 18.75 7.5V22.5ZM23.75 22.5C23.75 23.1875 23.1875 23.75 22.5 23.75C21.8125 23.75 21.25 23.1875 21.25 22.5V18.75C21.25 18.0625 21.8125 17.5 22.5 17.5C23.1875 17.5 23.75 18.0625 23.75 18.75V22.5Z" fill="black"/>
</g>
<defs>
<clipPath id="clip0_90_305">
<rect width="30" height="30" fill="white"/>
</clipPath>
</defs>
</svg>
