<svg width="77" height="67" viewBox="0 0 77 67" fill="none" xmlns="http://www.w3.org/2000/svg">
<path d="M22.5196 8.39878L22.5214 8.40124C25.1751 12.1015 29.8239 18.8161 33.806 25.7483C35.7973 29.2147 37.6164 32.7262 38.9359 35.9364C40.2603 39.1586 41.0601 42.0281 41.058 44.2265V44.227C41.058 55.4262 31.9858 64.5 20.7734 64.5C9.58296 64.5 0.5 55.4262 0.5 44.227C0.5 42.0284 1.30126 39.1587 2.62633 35.9364C3.94644 32.7262 5.76563 29.2147 7.75652 25.7482C11.7379 18.8161 16.3844 12.1014 19.0367 8.40113L19.0377 8.39973C19.4435 7.82948 20.0866 7.5 20.7842 7.5C21.4729 7.5 22.1223 7.8377 22.5196 8.39878ZM8.89557 53.2015L8.89923 53.2045C9.33366 53.5638 9.85904 53.7435 10.3867 53.7435C11.0394 53.7435 11.7027 53.4709 12.159 52.9178C12.9835 51.9435 12.8513 50.4867 11.8861 49.6614L11.8828 49.6586C10.3515 48.3719 9.84008 46.7513 9.71895 45.4043C9.60033 44.0851 9.85962 43.0539 9.89329 42.9204C10.2381 41.6997 9.53112 40.4273 8.30404 40.074L8.30131 40.0732C7.07415 39.7275 5.80006 40.4274 5.44435 41.6576C5.38823 41.846 4.91484 43.5763 5.11133 45.8271C5.30971 48.0996 6.19469 50.9241 8.89557 53.2015Z" fill="url(#paint0_linear_1_434)" stroke="url(#paint1_linear_1_434)"/>
<g filter="url(#filter0_d_1_434)">
<circle cx="32.8084" cy="23.4044" r="14.2169" fill="black"/>
<circle cx="32.8084" cy="23.4044" r="14.7169" stroke="white"/>
</g>
<defs>
<filter id="filter0_d_1_434" x="9.59155" y="0.187485" width="66.4338" height="66.4338" filterUnits="userSpaceOnUse" color-interpolation-filters="sRGB">
<feFlood flood-opacity="0" result="BackgroundImageFix"/>
<feColorMatrix in="SourceAlpha" type="matrix" values="0 0 0 0 0 0 0 0 0 0 0 0 0 0 0 0 0 0 127 0" result="hardAlpha"/>
<feOffset dx="10" dy="10"/>
<feGaussianBlur stdDeviation="9"/>
<feColorMatrix type="matrix" values="0 0 0 0 0 0 0 0 0 0 0 0 0 0 0 0 0 0 0.03 0"/>
<feBlend mode="normal" in2="BackgroundImageFix" result="effect1_dropShadow_1_434"/>
<feBlend mode="normal" in="SourceGraphic" in2="effect1_dropShadow_1_434" result="shape"/>
</filter>
<linearGradient id="paint0_linear_1_434" x1="0" y1="7" x2="59.0185" y2="45.9043" gradientUnits="userSpaceOnUse">
<stop stop-color="#FF0000" stop-opacity="0.8"/>
<stop offset="1" stop-color="#DF1B49"/>
</linearGradient>
<linearGradient id="paint1_linear_1_434" x1="1.83885" y1="7" x2="59.3268" y2="46.5912" gradientUnits="userSpaceOnUse">
<stop stop-color="#FF78A9"/>
<stop offset="1" stop-color="#DF1B49"/>
</linearGradient>
</defs>
</svg>
