<svg width="45" height="44" viewBox="0 0 45 44" fill="none" xmlns="http://www.w3.org/2000/svg">
<g clip-path="url(#clip0_14_208)">
<rect width="45" height="43.9535" rx="21.9767" fill="#FF0000"/>
<path d="M21.2456 11.1134C20.9663 11.1134 20.7115 11.2504 20.5626 11.4764L21.2456 11.1134ZM21.2456 11.1134H23.7544M21.2456 11.1134H23.7544M23.7544 11.1134C24.0337 11.1134 24.2885 11.2504 24.4374 11.4764L23.7544 11.1134ZM18.7733 10.348L18.7731 10.3483L17.2295 12.6948H15.9338C13.2819 12.6948 11.1213 14.801 11.1213 17.3983V26.5552C11.1213 29.1525 13.2819 31.2587 15.9338 31.2587H29.0588C31.7106 31.2587 33.8713 29.1525 33.8713 26.5552V17.3983C33.8713 14.8022 31.7127 12.6968 29.0625 12.6948C29.0613 12.6948 29.06 12.6948 29.0588 12.6948H27.7667L26.2232 10.3502C25.6802 9.52304 24.7574 9.03198 23.7525 9.03198H21.2437C20.2386 9.03198 19.318 9.52504 18.7733 10.348ZM22.5 -0.125C10.0269 -0.125 -0.125 9.78661 -0.125 21.9767C-0.125 34.1669 10.0269 44.0785 22.5 44.0785C34.9731 44.0785 45.125 34.1669 45.125 21.9767C45.125 9.78661 34.9731 -0.125 22.5 -0.125ZM22.5 41.9971C11.1944 41.9971 2 33.0124 2 21.9767C2 10.9411 11.1944 1.9564 22.5 1.9564C33.8056 1.9564 43 10.9411 43 21.9767C43 33.0124 33.8056 41.9971 22.5 41.9971ZM22.5 17.2733C19.8481 17.2733 17.6875 19.3795 17.6875 21.9767C17.6875 24.574 19.8481 26.6802 22.5 26.6802C25.1519 26.6802 27.3125 24.574 27.3125 21.9767C27.3125 19.3795 25.1519 17.2733 22.5 17.2733ZM22.5 24.5988C21.0156 24.5988 19.8125 23.4195 19.8125 21.9767C19.8125 20.534 21.0156 19.3547 22.5 19.3547C23.9844 19.3547 25.1875 20.534 25.1875 21.9767C25.1875 23.4195 23.9844 24.5988 22.5 24.5988ZM19.7618 12.6948L20.5625 11.4765H24.4375L25.2382 12.6948H19.7618ZM31.75 26.5552C31.75 27.998 30.5469 29.1773 29.0625 29.1773H15.9375C14.4531 29.1773 13.25 27.998 13.25 26.5552V17.3983C13.25 15.9555 14.4531 14.7762 15.9375 14.7762H17.8275H17.8275H17.8275H17.8275H17.8276H17.8276H17.8276H17.8276H17.8276H17.8277H17.8277H17.8277H17.8277H17.8277H17.8277H17.8278H17.8278H17.8278H17.8278H17.8278H17.8279H17.8279H17.8279H17.8279H17.8279H17.8279H17.8279H17.828H17.828H17.828H17.828H17.828H17.828H17.8281H17.8281H17.8281H17.8281H17.8281H17.8282H17.8282H17.8282H17.8282H17.8282H17.8282H17.8283H17.8283H17.8283H17.8283H17.8283H17.8284H17.8284H17.8284H17.8284H17.8284H17.8285H17.8285H17.8285H17.8285H17.8286H17.8286H17.8286H17.8286H17.8286H17.8287H17.8287H17.8287H17.8287H17.8288H17.8288H17.8288H17.8288H17.8289H17.8289H17.8289H17.8289H17.829H17.829H17.829H17.829H17.8291H17.8291H17.8291H17.8291H17.8292H17.8292H17.8292H17.8292H17.8293H17.8293H17.8293H17.8293H17.8294H17.8294H17.8294H17.8294H17.8295H17.8295H17.8295H17.8295H17.8296H17.8296H17.8296H17.8297H17.8297H17.8297H17.8297H17.8297H17.8298H17.8298H17.8298H17.8298H17.8298H17.8299H17.8299H17.8299H17.8299H17.83H17.83H17.83H17.83H17.8301H17.8301H17.8301H17.8301H17.8302H17.8302H17.8302H17.8302H17.8303H17.8303H17.8303H17.8303H17.8304H17.8304H17.8304H17.8304H17.8305H17.8305H17.8305H17.8305H17.8306H17.8306H17.8306H17.8306H17.8306H17.8307H17.8307H17.8307H17.8307H17.8308H17.8308H17.8308H17.8308H17.8308H17.8309H17.8309H17.8309H17.8309H17.8309H17.831H17.831H17.831H17.831H17.8311H17.8311H17.8311H17.8311H17.8312H17.8312H17.8312H17.8312H17.8312H17.8313H17.8313H17.8313H17.8313H17.8314H17.8314H17.8314H17.8314H17.8315H17.8315H17.8315H17.8315H17.8316H17.8316H17.8316H17.8317H17.8317H17.8317H17.8317H17.8318H17.8318H17.8318H17.8318H17.8319H17.8319H17.8319H17.8319H17.8319H17.832H17.832H17.832H17.832H17.8321H17.8321H17.8321H17.8322H17.8322H17.8322H17.8322H17.8323H17.8323H17.8323H17.8323H17.8324H17.8324H17.8324H17.8324H17.8325H17.8325H17.8325H17.8326H17.8326H17.8326H17.8326H17.8327H17.8327H17.8327H17.8327H17.8328H17.8328H17.8328H17.8328H17.8328H17.8329H17.8329H17.8329H17.8329H17.833H17.833H17.833H17.833H17.8331H17.8331H17.8331H17.8331H29.0606C30.545 14.7762 31.7481 15.9555 31.7481 17.3983L31.75 26.5552Z" fill="white" stroke="white" stroke-width="0.25"/>
</g>
<defs>
<clipPath id="clip0_14_208">
<rect width="45" height="43.9535" rx="21.9767" fill="white"/>
</clipPath>
</defs>
</svg>
