<svg width="23" height="21" viewBox="0 0 23 21" fill="none" xmlns="http://www.w3.org/2000/svg">
<path d="M22.8289 9.47624C21.903 7.46821 20.5469 5.68835 18.8565 4.26278L21.7623 1.35703L20.4062 0L17.2503 3.153C15.5036 2.14262 13.518 1.61876 11.5002 1.63592C4.31249 1.63592 1.01286 7.6362 0.171423 9.47624C0.058469 9.72283 0 9.99087 0 10.2621C0 10.5333 0.058469 10.8014 0.171423 11.0479C1.09733 13.056 2.45348 14.8358 4.14382 16.2614L1.23903 19.1672L2.59415 20.5223L5.75002 17.3693C7.49676 18.3797 9.48234 18.9035 11.5002 18.8864C18.6879 18.8864 21.9875 12.8861 22.8289 11.046C22.9416 10.7997 23 10.532 23 10.2611C23 9.99026 22.9416 9.72255 22.8289 9.47624ZM5.75002 10.2611C5.74821 9.20561 6.03745 8.17001 6.58596 7.26819C7.13446 6.36636 7.921 5.63322 8.8591 5.14937C9.7972 4.66551 10.8505 4.44966 11.9033 4.52556C12.9561 4.60145 13.9676 4.96615 14.8266 5.57956L13.4351 6.9711C12.8509 6.6188 12.1823 6.43104 11.5002 6.42771C10.4835 6.42771 9.50843 6.83158 8.78953 7.55049C8.07062 8.2694 7.66674 9.24445 7.66674 10.2611C7.67008 10.9433 7.85784 11.6119 8.21013 12.1961L6.81859 13.5876C6.12375 12.6176 5.75008 11.4543 5.75002 10.2611ZM11.5002 16.0113C10.307 16.0112 9.14373 15.6376 8.17371 14.9427L9.56525 13.5512C10.1494 13.9035 10.818 14.0912 11.5002 14.0946C12.5169 14.0946 13.4919 13.6907 14.2108 12.9718C14.9297 12.2529 15.3336 11.2778 15.3336 10.2611C15.3303 9.57896 15.1425 8.91039 14.7902 8.32621L16.1817 6.93468C16.7952 7.79368 17.1599 8.80517 17.2358 9.85797C17.3116 10.9108 17.0958 11.9641 16.6119 12.9022C16.1281 13.8403 15.3949 14.6268 14.4931 15.1754C13.5913 15.7239 12.5557 16.0131 11.5002 16.0113Z" fill="black"/>
</svg>
