<svg width="24" height="24" viewBox="0 0 24 24" fill="none" xmlns="http://www.w3.org/2000/svg">
<g clip-path="url(#clip0_22_246)">
<path d="M20.656 14.856C19.461 13.714 17.567 13.715 16.374 14.863L14.91 16.028C11.712 14.671 9.436 12.39 7.978 9.08103L9.137 7.62503C10.283 6.43303 10.284 4.54003 9.143 3.34403C9.143 3.34403 7.291 0.93703 7.26 0.90603C6.054 -0.30197 4.088 -0.30097 2.933 0.85903L1.784 1.86203C0.634 3.01203 0 4.56503 0 6.23803C0 13.874 10.126 24 17.762 24C19.435 24 20.989 23.367 22.183 22.167L23.095 21.117C24.3 19.91 24.3 17.947 23.095 16.741C23.065 16.71 20.657 14.858 20.657 14.858L20.656 14.856ZM21.633 19.752L20.721 20.802C19.95 21.574 18.9 21.999 17.762 21.999C11.773 21.999 2 13.194 2 6.23703C2 5.09903 2.425 4.04803 3.146 3.32403L4.296 2.31903C4.51 2.10603 4.79 1.99903 5.071 1.99903C5.334 1.99903 5.597 2.09303 5.805 2.28203C5.805 2.28203 7.647 4.67503 7.677 4.70503C8.105 5.13203 8.105 5.82803 7.677 6.25403C7.65 6.28103 6.042 8.29803 6.042 8.29803C5.817 8.57903 5.763 8.95903 5.896 9.29303C7.609 13.561 10.577 16.525 14.717 18.105C15.045 18.231 15.419 18.173 15.696 17.954C15.696 17.954 17.714 16.346 17.74 16.319C18.154 15.905 18.875 15.905 19.289 16.319C19.319 16.35 21.714 18.192 21.714 18.192C22.102 18.622 22.088 19.289 21.629 19.752H21.633ZM23.121 0.87903C22.555 0.31203 21.802 2.95239e-05 21 2.95239e-05H17C15.346 0.00202952 14 1.34803 14 3.00103V9.62203C14.003 10.137 14.287 10.605 14.744 10.843C14.939 10.945 15.15 10.996 15.365 10.996C15.654 10.996 15.951 10.902 16.225 10.71L18.352 9.00003H20.999C22.653 9.00003 23.999 7.65403 23.999 6.00003V3.00003C23.999 2.19803 23.686 1.44503 23.12 0.87803L23.121 0.87903ZM22 6.00003C22 6.55103 21.552 7.00003 21 7.00003H18C17.772 7.00003 17.551 7.07803 17.373 7.22103L16.001 8.32603V3.00203C16.001 2.45103 16.449 2.00203 17 2.00203H21C21.268 2.00203 21.519 2.10503 21.707 2.29403C21.895 2.48303 22 2.73403 22 3.00203V6.00203V6.00003Z" fill="black"/>
</g>
<defs>
<clipPath id="clip0_22_246">
<rect width="24" height="24" fill="white"/>
</clipPath>
</defs>
</svg>
