<svg width="40" height="40" viewBox="0 0 40 40" fill="none" xmlns="http://www.w3.org/2000/svg">
<g clip-path="url(#clip0_1_704)">
<path d="M20 0C16.0444 0 12.1776 1.17298 8.8886 3.37061C5.59962 5.56824 3.03617 8.69181 1.52242 12.3463C0.00866572 16.0009 -0.387401 20.0222 0.384303 23.9018C1.15601 27.7814 3.06082 31.3451 5.85787 34.1421C8.65492 36.9392 12.2186 38.844 16.0982 39.6157C19.9778 40.3874 23.9992 39.9913 27.6537 38.4776C31.3082 36.9638 34.4318 34.4004 36.6294 31.1114C38.827 27.8224 40 23.9556 40 20C39.9943 14.6974 37.8853 9.61368 34.1358 5.8642C30.3863 2.11471 25.3026 0.00573514 20 0ZM14.1067 25.8933C15.6713 27.4534 17.7906 28.3294 20 28.3294C22.2094 28.3294 24.3287 27.4534 25.8933 25.8933L28.25 28.25C26.6184 29.8815 24.5395 30.9925 22.2765 31.4426C20.0134 31.8927 17.6677 31.6615 15.5359 30.7785C13.4042 29.8954 11.5822 28.4001 10.3003 26.4815C9.01839 24.563 8.33418 22.3074 8.33418 20C8.33418 17.6926 9.01839 15.437 10.3003 13.5185C11.5822 11.5999 13.4042 10.1046 15.5359 9.22152C17.6677 8.33846 20.0134 8.10736 22.2765 8.55742C24.5395 9.00748 26.6184 10.1185 28.25 11.75L25.8933 14.1067C24.3303 12.5437 22.2104 11.6656 20 11.6656C17.7896 11.6656 15.6697 12.5437 14.1067 14.1067C12.5437 15.6697 11.6656 17.7896 11.6656 20C11.6656 22.2104 12.5437 24.3303 14.1067 25.8933Z" fill="white"/>
</g>
<defs>
<clipPath id="clip0_1_704">
<rect width="40" height="40" fill="white"/>
</clipPath>
</defs>
</svg>
