<svg width="30" height="30" viewBox="0 0 30 30" fill="none" xmlns="http://www.w3.org/2000/svg">
<g clip-path="url(#clip0_90_287)">
<path d="M23.75 0H6.25C2.80375 0 0 2.80375 0 6.25V23.75C0 27.1963 2.80375 30 6.25 30H19.3938C19.5975 30 19.7987 29.9837 20 29.97V23.75C20 21.6825 21.6825 20 23.75 20H29.97C29.9837 19.7987 30 19.5975 30 19.3938V6.25C30 2.80375 27.1963 0 23.75 0ZM20 16.25H16.25V20C16.25 20.6912 15.69 21.25 15 21.25C14.31 21.25 13.75 20.6912 13.75 20V16.25H10C9.31 16.25 8.75 15.6912 8.75 15C8.75 14.3088 9.31 13.75 10 13.75H13.75V10C13.75 9.30875 14.31 8.75 15 8.75C15.69 8.75 16.25 9.30875 16.25 10V13.75H20C20.69 13.75 21.25 14.3088 21.25 15C21.25 15.6912 20.69 16.25 20 16.25ZM23.75 22.5H29.425C28.9913 23.6413 28.325 24.6925 27.4362 25.5812L25.5812 27.4375C24.6912 28.3263 23.6413 28.9925 22.5 29.4263V23.7512C22.5 23.0625 23.06 22.5 23.75 22.5Z" fill="black"/>
</g>
<defs>
<clipPath id="clip0_90_287">
<rect width="30" height="30" fill="white"/>
</clipPath>
</defs>
</svg>
