<svg width="30" height="30" viewBox="0 0 30 30" fill="none" xmlns="http://www.w3.org/2000/svg">
<path d="M28.75 5.625C28.75 4.58947 27.9106 3.75 26.875 3.75H22.155C21.3652 1.5092 19.2509 0.00761719 16.875 0H13.125C10.7491 0.00761719 8.63486 1.5092 7.84502 3.75H3.125C2.08947 3.75 1.25 4.58947 1.25 5.625C1.25 6.66053 2.08947 7.5 3.125 7.5H3.75002V23.125C3.75002 26.922 6.82807 30 10.625 30H19.375C23.172 30 26.25 26.922 26.25 23.125V7.5H26.875C27.9106 7.5 28.75 6.66053 28.75 5.625ZM22.5 23.125C22.5 24.8509 21.1009 26.25 19.375 26.25H10.625C8.89912 26.25 7.50002 24.8509 7.50002 23.125V7.5H22.5V23.125Z" fill="black"/>
<path d="M11.5 22.5C12.3284 22.5 13 21.6792 13 20.6667V13.3333C13 12.3208 12.3284 11.5 11.5 11.5C10.6716 11.5 10 12.3208 10 13.3333V20.6667C10 21.6792 10.6716 22.5 11.5 22.5Z" fill="black"/>
<path d="M17.5 22.5C18.3284 22.5 19 21.6792 19 20.6667V13.3333C19 12.3208 18.3284 11.5 17.5 11.5C16.6716 11.5 16 12.3208 16 13.3333V20.6667C16 21.6792 16.6716 22.5 17.5 22.5Z" fill="black"/>
</svg>
