<svg width="30" height="30" viewBox="0 0 30 30" fill="none" xmlns="http://www.w3.org/2000/svg">
<g clip-path="url(#clip0_9_379)">
<path d="M20 3.4375C20 6.14125 16.475 9.50125 14.7188 10.91C14.4439 11.1303 14.1022 11.2504 13.75 11.2504C13.3978 11.2504 13.0561 11.1303 12.7812 10.91C11.025 9.5 7.5 6.14125 7.5 3.4375C7.46058 2.56777 7.76723 1.71784 8.35287 1.07363C8.93851 0.429426 9.75546 0.0433981 10.625 0C11.4945 0.0433981 12.3115 0.429426 12.8971 1.07363C13.4828 1.71784 13.7894 2.56777 13.75 3.4375C13.7106 2.56777 14.0172 1.71784 14.6029 1.07363C15.1885 0.429426 16.0055 0.0433981 16.875 0C17.7445 0.0433981 18.5615 0.429426 19.1471 1.07363C19.7328 1.71784 20.0394 2.56777 20 3.4375ZM29.1725 15.4375L19.5475 25.9488C18.3757 27.2265 16.9508 28.2465 15.3635 28.944C13.7763 29.6414 12.0613 30.0011 10.3275 30H5C3.67392 30 2.40215 29.4732 1.46447 28.5355C0.526784 27.5979 0 26.3261 0 25V18.75C0 17.4239 0.526784 16.1521 1.46447 15.2145C2.40215 14.2768 3.67392 13.75 5 13.75H14.7337C15.1469 13.7508 15.5547 13.8439 15.9273 14.0226C16.2999 14.2013 16.6278 14.461 16.8871 14.7827C17.1464 15.1044 17.3305 15.48 17.4259 15.882C17.5214 16.284 17.5257 16.7023 17.4388 17.1063C17.3034 17.6713 16.9986 18.1815 16.5652 18.5684C16.1318 18.9554 15.5905 19.2006 15.0138 19.2712L9.81 20C9.48202 20.047 9.18614 20.2224 8.98738 20.4875C8.78862 20.7526 8.70324 21.0857 8.75 21.4137C8.79675 21.742 8.97196 22.0381 9.23709 22.2372C9.50222 22.4362 9.83554 22.5217 10.1637 22.475L15.4788 21.725C16.7306 21.5406 17.8749 20.9138 18.7044 19.9583C19.5338 19.0027 19.9935 17.7816 20 16.5163C19.9939 16.2487 19.9667 15.982 19.9188 15.7188L24.3462 11.0475C24.9301 10.4153 25.7404 10.0398 26.6002 10.003C27.4599 9.96628 28.2993 10.2712 28.935 10.8512C29.5675 11.4309 29.9468 12.2359 29.9912 13.0926C30.0357 13.9494 29.7416 14.7893 29.1725 15.4313V15.4375Z" fill="white"/>
</g>
<defs>
<clipPath id="clip0_9_379">
<rect width="30" height="30" fill="white"/>
</clipPath>
</defs>
</svg>
