<svg width="30" height="30" viewBox="0 0 30 30" fill="none" xmlns="http://www.w3.org/2000/svg">
<g clip-path="url(#clip0_366_216)">
<path d="M15.0002 8.75V0.575C16.1414 1.0075 17.1914 1.67375 18.0814 2.5625L22.4365 6.92C23.3265 7.80875 23.9928 8.85875 24.4253 10H16.2502C15.5602 10 15.0002 9.43875 15.0002 8.75ZM16.5877 24.35C15.5714 25.3662 15.0002 26.7438 15.0002 28.1813V30H16.8189C18.2564 30 19.634 29.4287 20.6502 28.4125L29.1591 19.9038C30.2803 18.7825 30.2803 16.9625 29.1591 15.8413C28.0378 14.72 26.2178 14.72 25.0965 15.8413L16.5877 24.35ZM12.5001 28.1813C12.5001 26.0663 13.3239 24.0775 14.8189 22.5825L23.3277 14.0737C23.814 13.5875 24.3803 13.2137 24.9915 12.9475C24.9865 12.7975 24.9803 12.6487 24.9703 12.4987H16.2502C14.1826 12.4987 12.5001 10.8163 12.5001 8.74875V0.03C12.2989 0.01625 12.0976 0 11.8939 0H6.25006C2.80378 0 0 2.80375 0 6.25V23.75C0 27.1962 2.80378 30 6.25006 30H12.5001V28.1813Z" fill="black"/>
</g>
<defs>
<clipPath id="clip0_366_216">
<rect width="30" height="30" fill="white"/>
</clipPath>
</defs>
</svg>
