<svg width="46" height="50" viewBox="0 0 46 50" fill="none" xmlns="http://www.w3.org/2000/svg">
<path d="M27.1666 50C26.7158 50 26.2772 49.8538 25.9166 49.5833L17.5833 43.3333C17.3245 43.1393 17.1145 42.8876 16.9699 42.5984C16.8252 42.3091 16.7499 41.9901 16.7499 41.6667V29.9583L2.13325 13.5146C1.09517 12.3435 0.417376 10.8975 0.181335 9.35049C-0.054705 7.80344 0.161052 6.22115 0.802676 4.79378C1.4443 3.36641 2.48448 2.15471 3.79821 1.3043C5.11194 0.453902 6.64331 0.000988373 8.20825 0L37.7916 0C39.3564 0.00183552 40.8874 0.455499 42.2006 1.30647C43.5138 2.15745 44.5533 3.36952 45.1942 4.79705C45.8352 6.22458 46.0503 7.80682 45.8136 9.35364C45.577 10.9005 44.8987 12.346 43.8603 13.5167L29.2499 29.9583V47.9167C29.2499 48.4692 29.0304 48.9991 28.6397 49.3898C28.249 49.7805 27.7191 50 27.1666 50Z" fill="#C42727"/>
</svg>
