<svg width="37" height="35" viewBox="0 0 37 35" fill="none" xmlns="http://www.w3.org/2000/svg">
<path d="M26.6405 0.21843C24.9391 0.244884 23.2747 0.719666 21.8156 1.59483C20.3564 2.46999 19.1541 3.71454 18.3301 5.2028C17.5061 3.71454 16.3038 2.46999 14.8446 1.59483C13.3854 0.719666 11.7211 0.244884 10.0197 0.21843C7.30735 0.336228 4.75191 1.5223 2.91164 3.51753C1.07137 5.51276 0.0958625 8.15495 0.198233 10.8669C0.198233 21.0999 16.7526 32.9189 17.4567 33.4204L18.3301 34.0382L19.2034 33.4204C19.9076 32.922 36.462 21.0999 36.462 10.8669C36.5643 8.15495 35.5888 5.51276 33.7486 3.51753C31.9083 1.5223 29.3529 0.336228 26.6405 0.21843Z" fill="#FF0000"/>
</svg>
