<svg width="31" height="30" viewBox="0 0 31 30" fill="none" xmlns="http://www.w3.org/2000/svg">
<g clip-path="url(#clip0_9_362)">
<path d="M15.8886 -7.62939e-06C12.2194 0.0107787 8.68078 1.36223 5.93855 3.79999L4.2723 2.13374C4.09749 1.95898 3.87478 1.83997 3.63234 1.79176C3.3899 1.74355 3.13861 1.76831 2.91023 1.8629C2.68186 1.95748 2.48665 2.11766 2.3493 2.32317C2.21194 2.52868 2.1386 2.7703 2.13855 3.01749V8.74999C2.13855 9.08151 2.27025 9.39946 2.50467 9.63388C2.73909 9.8683 3.05703 9.99999 3.38855 9.99999H9.12105C9.36824 9.99994 9.60986 9.9266 9.81538 9.78925C10.0209 9.65189 10.1811 9.45669 10.2756 9.22831C10.3702 8.99994 10.395 8.74864 10.3468 8.5062C10.2986 8.26376 10.1796 8.04106 10.0048 7.86624L8.58605 6.44749C10.2417 5.03317 12.2722 4.12971 14.4312 3.84673C16.5902 3.56374 18.7849 3.9134 20.7491 4.85328C22.7133 5.79316 24.3625 7.28286 25.4967 9.14165C26.6308 11.0004 27.2012 13.1484 27.1386 15.325C27.0581 18.1373 25.9269 20.8174 23.9679 22.8368C22.0088 24.8562 19.3643 26.0683 16.5557 26.2339C13.7471 26.3996 10.9784 25.5069 8.79548 23.7319C6.61262 21.9569 5.17408 19.4284 4.76355 16.645C4.70493 16.1924 4.48434 15.7764 4.1426 15.474C3.80087 15.1716 3.36114 15.0032 2.9048 15C2.64001 14.9966 2.37753 15.0497 2.13491 15.1558C1.89229 15.2619 1.6751 15.4186 1.49786 15.6154C1.32062 15.8121 1.18741 16.0445 1.10713 16.2968C1.02684 16.5492 1.00133 16.8157 1.0323 17.0787C1.55257 20.7612 3.42029 24.1198 6.27405 26.5046C9.12781 28.8894 12.7647 30.1308 16.4811 29.9887C20.2407 29.8076 23.7981 28.2327 26.4597 25.5712C29.1213 22.9096 30.6962 19.3522 30.8773 15.5925C30.9548 13.5749 30.6246 11.5624 29.9064 9.67532C29.1883 7.78826 28.097 6.06541 26.6977 4.6098C25.2985 3.15418 23.62 1.9957 21.7628 1.20364C19.9055 0.41158 17.9076 0.00220273 15.8886 -7.62939e-06Z" fill="white"/>
<path d="M15.2637 8.75C14.7664 8.75 14.2895 8.94754 13.9378 9.29917C13.5862 9.65081 13.3887 10.1277 13.3887 10.625V15.9913C13.3888 16.6542 13.6523 17.29 14.1212 17.7587L16.3624 20C16.7161 20.3415 17.1897 20.5305 17.6813 20.5263C18.1729 20.522 18.6432 20.3248 18.9908 19.9772C19.3385 19.6295 19.5357 19.1592 19.5399 18.6676C19.5442 18.176 19.3552 17.7024 19.0137 17.3487L17.1387 15.4737V10.625C17.1387 10.1277 16.9411 9.65081 16.5895 9.29917C16.2379 8.94754 15.761 8.75 15.2637 8.75Z" fill="white"/>
</g>
<defs>
<clipPath id="clip0_9_362">
<rect width="30" height="30" fill="white" transform="translate(0.888672)"/>
</clipPath>
</defs>
</svg>
