<svg width="31" height="32" viewBox="0 0 31 32" fill="none" xmlns="http://www.w3.org/2000/svg">
<path d="M17.9443 11.906H18.0519C20.3378 11.906 22.1467 13.9972 22.1467 16.5002C22.1467 17.9566 21.4392 19.4126 20.4726 20.728C19.5029 22.0475 18.2514 23.2538 17.1169 24.2157C16.6162 24.6413 16.0025 24.8525 15.3889 24.8525C14.7755 24.8525 14.1617 24.6413 13.6621 24.217C13.6621 24.2169 13.662 24.2169 13.662 24.2168L13.8238 24.0263C11.569 22.1142 8.88234 19.2572 8.88234 16.5015C8.88234 14.1069 10.6072 12.1573 12.7272 12.1573C13.799 12.1573 14.7182 12.5122 15.3889 13.1259L17.9443 11.906ZM17.9443 11.906L17.942 11.9085C16.9445 11.9299 16.0659 12.2467 15.3888 12.796L17.9443 11.906ZM24.6481 3.50516V5.97803L18.888 1.87062L18.8879 1.87058C16.7911 0.376475 14.0767 0.376475 11.9799 1.87058L11.9799 1.87062L3.69995 7.77448C3.69993 7.77449 3.69992 7.7745 3.6999 7.77451C1.9987 8.98698 0.987671 10.999 0.987671 13.1583V24.7512C0.987671 28.3217 3.74036 31.25 7.15277 31.25H23.715C27.1274 31.25 29.8801 28.3217 29.8801 24.7512V13.1583C29.8801 11.1527 28.9993 9.28171 27.5141 8.05388V3.50516C27.5141 2.68907 26.8861 2.00539 26.0811 2.00539C25.276 2.00539 24.6481 2.68907 24.6481 3.50516ZM5.31265 10.2551L5.31279 10.255L13.5939 4.3511L13.5942 4.35093C14.1554 3.94985 14.7955 3.75141 15.4339 3.75141C16.0723 3.75141 16.7124 3.94985 17.2737 4.35093L17.2739 4.35111L25.5562 10.255L25.7013 10.0514L25.5562 10.255C26.4658 10.9034 27.0141 11.987 27.0141 13.1583V24.7512C27.0141 26.6933 25.5209 28.2505 23.715 28.2505H7.15277C5.34688 28.2505 3.85371 26.6933 3.85371 24.7512V13.1583C3.85371 11.987 4.40194 10.9035 5.31265 10.2551ZM15.3882 21.8202C14.1838 20.7904 13.2121 19.764 12.54 18.8396C11.8459 17.8851 11.4984 17.0761 11.4984 16.5002C11.4984 15.5677 12.0989 14.9056 12.7272 14.9056C13.0431 14.9056 13.3527 14.9617 13.5772 15.117C13.785 15.2608 13.9559 15.5144 13.9559 16.0016C13.9559 16.8178 14.5853 17.5013 15.3889 17.5013C16.1926 17.5013 16.822 16.8178 16.822 16.0016C16.822 15.5137 16.9929 15.2602 17.2006 15.1166C17.4251 14.9615 17.7346 14.9056 18.0507 14.9056C18.6791 14.9056 19.2795 15.5666 19.2795 16.5002C19.2795 17.0761 18.932 17.8851 18.2379 18.8394C17.5655 19.764 16.5933 20.7906 15.3882 21.8202Z" fill="white" stroke="white" stroke-width="0.5"/>
</svg>
