<svg width="63" height="63" viewBox="0 0 63 63" fill="none" xmlns="http://www.w3.org/2000/svg">
<path d="M31.5 5.67525C39.9105 5.67525 40.908 5.70675 44.2286 5.859C47.6621 6.0165 51.198 6.79875 53.6996 9.30037C56.2249 11.8256 56.9835 15.3274 57.141 18.7714C57.2932 22.092 57.3247 23.0895 57.3247 31.5C57.3247 39.9105 57.2932 40.908 57.141 44.2286C56.9861 47.6438 56.1855 51.2138 53.6996 53.6996C51.1744 56.2249 47.6753 56.9835 44.2286 57.141C40.908 57.2932 39.9105 57.3247 31.5 57.3247C23.0895 57.3247 22.092 57.2932 18.7714 57.141C15.3825 56.9861 11.7652 56.1671 9.30037 53.6996C6.78825 51.1875 6.0165 47.6516 5.859 44.2286C5.70675 40.908 5.67525 39.9105 5.67525 31.5C5.67525 23.0895 5.70675 22.092 5.859 18.7714C6.01388 15.3694 6.82237 11.7784 9.30037 9.30037C11.8204 6.78038 15.3353 6.0165 18.7714 5.859C22.092 5.70675 23.0895 5.67525 31.5 5.67525ZM31.5 0C22.9451 0 21.8715 0.03675 18.5115 0.189C13.6421 0.412125 8.80687 1.76662 5.28675 5.28675C1.7535 8.82 0.412125 13.6448 0.189 18.5115C0.03675 21.8715 0 22.9451 0 31.5C0 40.0549 0.03675 41.1285 0.189 44.4885C0.412125 49.3526 1.77187 54.201 5.28675 57.7133C8.81737 61.2439 13.65 62.5879 18.5115 62.811C21.8715 62.9632 22.9451 63 31.5 63C40.0549 63 41.1285 62.9632 44.4885 62.811C49.3552 62.5879 54.1958 61.2308 57.7133 57.7133C61.2491 54.1774 62.5879 49.3552 62.811 44.4885C62.9632 41.1285 63 40.0549 63 31.5C63 22.9451 62.9632 21.8715 62.811 18.5115C62.5879 13.6421 61.2308 8.80425 57.7133 5.28675C54.1879 1.76137 49.3421 0.4095 44.4885 0.189C41.1285 0.03675 40.0549 0 31.5 0Z" fill="white"/>
<path d="M31.5 15.3247C22.5671 15.3247 15.3247 22.5671 15.3247 31.5C15.3247 40.4328 22.5671 47.6752 31.5 47.6752C40.4328 47.6752 47.6752 40.4328 47.6752 31.5C47.6752 22.5671 40.4328 15.3247 31.5 15.3247ZM31.5 42C25.7013 42 21 37.2986 21 31.5C21 25.7013 25.7013 21 31.5 21C37.2986 21 42 25.7013 42 31.5C42 37.2986 37.2986 42 31.5 42Z" fill="white"/>
<path d="M48.3158 18.4643C50.4034 18.4643 52.0958 16.7719 52.0958 14.6843C52.0958 12.5967 50.4034 10.9043 48.3158 10.9043C46.2281 10.9043 44.5358 12.5967 44.5358 14.6843C44.5358 16.7719 46.2281 18.4643 48.3158 18.4643Z" fill="white"/>
</svg>
