<svg width="22" height="26" viewBox="0 0 22 26" fill="none" xmlns="http://www.w3.org/2000/svg">
<path d="M20.6449 11.2719C20.6449 18.9116 10.8225 25.4599 10.8225 25.4599C10.8225 25.4599 1 18.9116 1 11.2719C1 8.66687 2.03486 6.16849 3.87693 4.32642C5.719 2.48436 8.21738 1.44949 10.8225 1.44949C13.4275 1.44949 15.9259 2.48436 17.768 4.32642C19.61 6.16849 20.6449 8.66687 20.6449 11.2719Z" stroke="#FF0000" stroke-linecap="round" stroke-linejoin="round"/>
<path d="M10.8227 14.8279C12.631 14.8279 14.0969 13.362 14.0969 11.5537C14.0969 9.74546 12.631 8.27957 10.8227 8.27957C9.01447 8.27957 7.54858 9.74546 7.54858 11.5537C7.54858 13.362 9.01447 14.8279 10.8227 14.8279Z" stroke="#FF0000" stroke-linecap="round" stroke-linejoin="round"/>
</svg>
