<svg width="21" height="24" viewBox="0 0 21 24" fill="none" xmlns="http://www.w3.org/2000/svg">
<path d="M17.2083 8.16667V7.20833C17.2083 5.42917 16.5016 3.72288 15.2435 2.46483C13.9855 1.20677 12.2792 0.5 10.5 0.5C8.72084 0.5 7.01455 1.20677 5.7565 2.46483C4.49844 3.72288 3.79167 5.42917 3.79167 7.20833V8.16667H0.916672V20.625C0.916672 21.3875 1.21957 22.1188 1.75874 22.6579C2.29791 23.1971 3.02917 23.5 3.79167 23.5H17.2083C17.9708 23.5 18.7021 23.1971 19.2413 22.6579C19.7804 22.1188 20.0833 21.3875 20.0833 20.625V8.16667H17.2083ZM5.70834 7.20833C5.70834 5.9375 6.21317 4.71873 7.11179 3.82011C8.0104 2.9215 9.22918 2.41667 10.5 2.41667C11.7708 2.41667 12.9896 2.9215 13.8882 3.82011C14.7868 4.71873 15.2917 5.9375 15.2917 7.20833V8.16667H5.70834V7.20833ZM18.1667 20.625C18.1667 20.8792 18.0657 21.1229 17.886 21.3026C17.7063 21.4824 17.4625 21.5833 17.2083 21.5833H3.79167C3.53751 21.5833 3.29375 21.4824 3.11403 21.3026C2.93431 21.1229 2.83334 20.8792 2.83334 20.625V10.0833H18.1667V20.625Z" fill="black"/>
<path d="M11.4583 13.9167H9.54167V17.75H11.4583V13.9167Z" fill="black"/>
</svg>
