<svg width="243" height="67" viewBox="0 0 243 67" fill="none" xmlns="http://www.w3.org/2000/svg">
<path d="M75.1465 45.3759V19.194H84.2999C86.1238 19.194 87.6281 19.5094 88.8127 20.1401C89.9974 20.7622 90.8795 21.6017 91.459 22.6585C92.0386 23.7068 92.3283 24.8702 92.3283 26.1486C92.3283 27.2736 92.1281 28.2026 91.7275 28.9355C91.3354 29.6685 90.8156 30.248 90.1678 30.6741C89.5286 31.1003 88.834 31.4156 88.084 31.6202V31.8759C88.8852 31.927 89.6906 32.2082 90.5002 32.7196C91.3099 33.231 91.9874 33.9639 92.5329 34.9185C93.0783 35.873 93.3511 37.0406 93.3511 38.4213C93.3511 39.7338 93.0528 40.9142 92.4562 41.9625C91.8596 43.0108 90.9178 43.8418 89.6309 44.4554C88.344 45.069 86.6693 45.3759 84.6068 45.3759H75.1465ZM78.317 42.5634H84.6068C86.6778 42.5634 88.1479 42.1628 89.0173 41.3616C89.8951 40.552 90.334 39.5719 90.334 38.4213C90.334 37.5349 90.1082 36.7168 89.6565 35.9668C89.2048 35.2082 88.5613 34.6031 87.7261 34.1514C86.8908 33.6912 85.9022 33.4611 84.7602 33.4611H78.317V42.5634ZM78.317 30.6997H84.1977C85.1522 30.6997 86.013 30.5122 86.7801 30.1372C87.5556 29.7622 88.1693 29.2338 88.621 28.552C89.0812 27.8702 89.3113 27.069 89.3113 26.1486C89.3113 24.998 88.9107 24.0222 88.1096 23.221C87.3085 22.4114 86.0386 22.0065 84.2999 22.0065H78.317V30.6997ZM101.169 19.194V45.3759H98.1515V19.194H101.169ZM114.672 45.7849C112.899 45.7849 111.344 45.3631 110.006 44.5193C108.676 43.6756 107.636 42.4952 106.886 40.9781C106.145 39.4611 105.774 37.6884 105.774 35.6599C105.774 33.6145 106.145 31.829 106.886 30.3034C107.636 28.7778 108.676 27.5932 110.006 26.7494C111.344 25.9057 112.899 25.4838 114.672 25.4838C116.444 25.4838 117.996 25.9057 119.325 26.7494C120.663 27.5932 121.703 28.7778 122.444 30.3034C123.194 31.829 123.569 33.6145 123.569 35.6599C123.569 37.6884 123.194 39.4611 122.444 40.9781C121.703 42.4952 120.663 43.6756 119.325 44.5193C117.996 45.3631 116.444 45.7849 114.672 45.7849ZM114.672 43.0747C116.018 43.0747 117.126 42.7295 117.996 42.0392C118.865 41.3489 119.508 40.4412 119.926 39.3162C120.344 38.1912 120.552 36.9724 120.552 35.6599C120.552 34.3474 120.344 33.1244 119.926 31.9909C119.508 30.8574 118.865 29.9412 117.996 29.2423C117.126 28.5435 116.018 28.194 114.672 28.194C113.325 28.194 112.217 28.5435 111.348 29.2423C110.479 29.9412 109.835 30.8574 109.417 31.9909C109 33.1244 108.791 34.3474 108.791 35.6599C108.791 36.9724 109 38.1912 109.417 39.3162C109.835 40.4412 110.479 41.3489 111.348 42.0392C112.217 42.7295 113.325 43.0747 114.672 43.0747ZM136.152 45.7849C134.379 45.7849 132.824 45.3631 131.486 44.5193C130.156 43.6756 129.117 42.4952 128.367 40.9781C127.625 39.4611 127.254 37.6884 127.254 35.6599C127.254 33.6145 127.625 31.829 128.367 30.3034C129.117 28.7778 130.156 27.5932 131.486 26.7494C132.824 25.9057 134.379 25.4838 136.152 25.4838C137.925 25.4838 139.476 25.9057 140.806 26.7494C142.144 27.5932 143.183 28.7778 143.925 30.3034C144.675 31.829 145.05 33.6145 145.05 35.6599C145.05 37.6884 144.675 39.4611 143.925 40.9781C143.183 42.4952 142.144 43.6756 140.806 44.5193C139.476 45.3631 137.925 45.7849 136.152 45.7849ZM136.152 43.0747C137.499 43.0747 138.607 42.7295 139.476 42.0392C140.345 41.3489 140.989 40.4412 141.406 39.3162C141.824 38.1912 142.033 36.9724 142.033 35.6599C142.033 34.3474 141.824 33.1244 141.406 31.9909C140.989 30.8574 140.345 29.9412 139.476 29.2423C138.607 28.5435 137.499 28.194 136.152 28.194C134.806 28.194 133.698 28.5435 132.828 29.2423C131.959 29.9412 131.316 30.8574 130.898 31.9909C130.48 33.1244 130.272 34.3474 130.272 35.6599C130.272 36.9724 130.48 38.1912 130.898 39.3162C131.316 40.4412 131.959 41.3489 132.828 42.0392C133.698 42.7295 134.806 43.0747 136.152 43.0747ZM157.07 45.7849C155.434 45.7849 153.989 45.3716 152.736 44.5449C151.484 43.7097 150.503 42.5335 149.796 41.0165C149.089 39.4909 148.735 37.6884 148.735 35.6088C148.735 33.5463 149.089 31.7565 149.796 30.2395C150.503 28.7224 151.488 27.5506 152.749 26.7239C154.011 25.8972 155.468 25.4838 157.121 25.4838C158.4 25.4838 159.41 25.6969 160.151 26.123C160.901 26.5406 161.472 27.0179 161.864 27.5548C162.265 28.0832 162.576 28.5179 162.797 28.8588H163.053V19.194H166.07V45.3759H163.155V42.3588H162.797C162.576 42.7168 162.261 43.1685 161.851 43.7139C161.442 44.2509 160.859 44.7324 160.1 45.1585C159.341 45.5761 158.332 45.7849 157.07 45.7849ZM157.479 43.0747C158.689 43.0747 159.712 42.7594 160.547 42.1287C161.383 41.4895 162.018 40.6074 162.452 39.4824C162.887 38.3489 163.104 37.0406 163.104 35.5577C163.104 34.0918 162.891 32.8091 162.465 31.7097C162.039 30.6017 161.408 29.7409 160.573 29.1273C159.738 28.5051 158.707 28.194 157.479 28.194C156.201 28.194 155.136 28.5222 154.283 29.1784C153.439 29.8261 152.805 30.7082 152.378 31.8247C151.961 32.9327 151.752 34.177 151.752 35.5577C151.752 36.9554 151.965 38.2253 152.391 39.3673C152.826 40.5009 153.465 41.4043 154.309 42.0776C155.161 42.7423 156.218 43.0747 157.479 43.0747ZM175.032 19.194V45.3759H172.015V19.194H175.032ZM180.558 45.3759V25.7395H183.575V45.3759H180.558ZM182.092 22.4668C181.504 22.4668 180.997 22.2665 180.571 21.8659C180.153 21.4653 179.944 20.9838 179.944 20.4213C179.944 19.8588 180.153 19.3773 180.571 18.9767C180.997 18.5761 181.504 18.3759 182.092 18.3759C182.68 18.3759 183.183 18.5761 183.6 18.9767C184.027 19.3773 184.24 19.8588 184.24 20.4213C184.24 20.9838 184.027 21.4653 183.6 21.8659C183.183 22.2665 182.68 22.4668 182.092 22.4668ZM192.118 33.5634V45.3759H189.101V25.7395H192.015V28.8077H192.271C192.731 27.8105 193.43 27.0094 194.368 26.4043C195.305 25.7906 196.515 25.4838 197.998 25.4838C199.328 25.4838 200.491 25.7565 201.489 26.302C202.486 26.8389 203.261 27.6571 203.815 28.7565C204.369 29.8474 204.646 31.2281 204.646 32.8986V45.3759H201.629V33.1031C201.629 31.5605 201.229 30.3588 200.427 29.498C199.626 28.6287 198.527 28.194 197.129 28.194C196.166 28.194 195.305 28.4028 194.547 28.8205C193.797 29.2381 193.204 29.8474 192.77 30.6486C192.335 31.4497 192.118 32.4213 192.118 33.5634ZM218.392 45.7849C216.5 45.7849 214.868 45.3673 213.496 44.5321C212.132 43.6884 211.08 42.5122 210.338 41.0037C209.605 39.4866 209.239 37.7224 209.239 35.7111C209.239 33.6997 209.605 31.927 210.338 30.3929C211.08 28.8503 212.111 27.6486 213.432 26.7878C214.762 25.9185 216.313 25.4838 218.085 25.4838C219.108 25.4838 220.118 25.6543 221.115 25.9952C222.112 26.3361 223.02 26.8901 223.838 27.6571C224.656 28.4156 225.308 29.4213 225.794 30.6741C226.28 31.927 226.523 33.4696 226.523 35.302V36.5804H211.387V33.9724H223.455C223.455 32.8645 223.233 31.8759 222.79 31.0065C222.355 30.1372 221.733 29.4511 220.924 28.9483C220.122 28.4455 219.176 28.194 218.085 28.194C216.884 28.194 215.844 28.4923 214.966 29.0889C214.097 29.677 213.428 30.444 212.959 31.3901C212.49 32.3361 212.256 33.3503 212.256 34.4327V36.1713C212.256 37.6543 212.512 38.9114 213.023 39.9426C213.543 40.9653 214.263 41.7452 215.183 42.2821C216.104 42.8105 217.174 43.0747 218.392 43.0747C219.185 43.0747 219.901 42.9639 220.54 42.7423C221.188 42.5122 221.746 42.1713 222.215 41.7196C222.683 41.2594 223.046 40.6884 223.301 40.0065L226.216 40.8247C225.909 41.8134 225.394 42.6827 224.669 43.4327C223.945 44.1741 223.05 44.7537 221.985 45.1713C220.919 45.5804 219.722 45.7849 218.392 45.7849Z" fill="#EAEAEA"/>
<path fill-rule="evenodd" clip-rule="evenodd" d="M6.66248 0.341636C6.51794 0.12933 6.28562 0 6.03967 0C5.7907 0 5.55762 0.126138 5.41383 0.341636C3.87081 2.61474 0 8.58963 0 11.4095C0 14.9269 2.70389 17.777 6.0374 17.777C9.37545 17.777 12.0771 14.9277 12.0771 11.4095C12.0793 8.58963 8.20551 2.61474 6.66248 0.341636ZM3.42281 13.9755C3.31838 14.1111 3.16854 14.1766 3.01794 14.1766C2.89989 14.1766 2.77805 14.1311 2.67892 14.0441C1.18129 12.712 1.69589 10.7494 1.72162 10.6672C1.80032 10.3711 2.09243 10.201 2.37243 10.2864C2.65243 10.3702 2.81438 10.6775 2.73265 10.9704C2.71751 11.0327 2.39589 12.3361 3.36075 13.1925C3.5787 13.3936 3.60973 13.7424 3.42281 13.9755Z" fill="#EAEAEA"/>
<path fill-rule="evenodd" clip-rule="evenodd" d="M20.3017 15.1944C19.8825 14.5678 19.1976 14.1935 18.4696 14.1935C17.7363 14.1935 17.0567 14.5614 16.6292 15.1944C12.0901 21.8724 0.715332 39.4443 0.715332 47.7298C0.715332 58.0713 8.66657 66.4454 18.4613 66.4454C28.2726 66.4454 36.2155 58.0713 36.2155 47.7298C36.2216 39.4443 24.8407 21.8724 20.3017 15.1944ZM10.7764 55.273C10.4737 55.6609 10.0318 55.8549 9.59057 55.8549C9.23868 55.8549 8.88527 55.7272 8.59089 55.4702C4.19338 51.5625 5.70765 45.7911 5.77879 45.5429C6.01414 44.6745 6.86851 44.1756 7.69262 44.4239C8.51673 44.6745 8.9897 45.5756 8.75435 46.4392C8.70895 46.6276 7.7577 50.4562 10.5925 52.9712C11.2411 53.5546 11.3258 54.585 10.7764 55.273Z" fill="#EAEAEA"/>
<path fill-rule="evenodd" clip-rule="evenodd" d="M45.4328 2.51813C45.1521 2.09751 44.6912 1.8429 44.2038 1.8429C43.7082 1.8429 43.2488 2.09112 42.9658 2.51813C39.9108 7.01087 32.2539 18.8369 32.2539 24.4135C32.2539 31.3693 37.6027 37.0074 44.1948 37.0074C50.7982 37.0074 56.1417 31.3693 56.1417 24.4135C56.1477 18.8369 48.4909 7.01087 45.4328 2.51813ZM39.0246 29.4873C38.8203 29.7507 38.5229 29.8784 38.2255 29.8784C37.9878 29.8784 37.7495 29.7946 37.5512 29.6214C34.5923 26.9899 35.6116 23.1086 35.6601 22.9418C35.8182 22.3559 36.3934 22.0207 36.9481 22.1859C37.5028 22.3559 37.8198 22.9625 37.6647 23.542C37.6329 23.6697 36.9904 26.2469 38.899 27.9381C39.3387 28.3324 39.3954 29.0276 39.0246 29.4873Z" fill="#EAEAEA"/>
</svg>
