<svg width="30" height="30" viewBox="0 0 30 30" fill="none" xmlns="http://www.w3.org/2000/svg">
<g clip-path="url(#clip0_9_357)">
<path d="M14.375 20C13.8777 20 13.4008 20.1975 13.0492 20.5492C12.6975 20.9008 12.5 21.3777 12.5 21.875V22.875C12.5 23.7701 12.1444 24.6285 11.5115 25.2615C10.8786 25.8944 10.0201 26.25 9.125 26.25H7.125C6.22989 26.25 5.37145 25.8944 4.73851 25.2615C4.10558 24.6285 3.75 23.7701 3.75 22.875V7.125C3.75 6.22989 4.10558 5.37145 4.73851 4.73851C5.37145 4.10558 6.22989 3.75 7.125 3.75H9.125C10.0201 3.75 10.8786 4.10558 11.5115 4.73851C12.1444 5.37145 12.5 6.22989 12.5 7.125V8.125C12.5 8.62228 12.6975 9.09919 13.0492 9.45083C13.4008 9.80246 13.8777 10 14.375 10C14.8723 10 15.3492 9.80246 15.7008 9.45083C16.0525 9.09919 16.25 8.62228 16.25 8.125V7.125C16.248 5.23594 15.4967 3.42482 14.1609 2.08906C12.8252 0.75329 11.0141 0.00198535 9.125 0L7.125 0C5.23594 0.00198535 3.42482 0.75329 2.08906 2.08906C0.75329 3.42482 0.00198535 5.23594 0 7.125L0 22.875C0.00198535 24.7641 0.75329 26.5752 2.08906 27.9109C3.42482 29.2467 5.23594 29.998 7.125 30H9.125C11.0141 29.998 12.8252 29.2467 14.1609 27.9109C15.4967 26.5752 16.248 24.7641 16.25 22.875V21.875C16.25 21.3777 16.0525 20.9008 15.7008 20.5492C15.3492 20.1975 14.8723 20 14.375 20Z" fill="#FF0000"/>
<path d="M28.2013 11.9063L22.4688 6.17376C22.2946 5.99967 22.0878 5.8616 21.8603 5.76742C21.6328 5.67323 21.3889 5.62479 21.1427 5.62485C20.8964 5.62491 20.6526 5.67347 20.4251 5.76775C20.1976 5.86204 19.991 6.00022 19.8169 6.17438C19.4653 6.52612 19.2678 7.00312 19.268 7.50045C19.268 7.7467 19.3166 7.99052 19.4109 8.21801C19.5052 8.44549 19.6433 8.65217 19.8175 8.82626L24.0812 13.09L8.75 13.125C8.25272 13.125 7.77581 13.3225 7.42417 13.6742C7.07254 14.0258 6.875 14.5027 6.875 15C6.875 15.4973 7.07254 15.9742 7.42417 16.3258C7.77581 16.6775 8.25272 16.875 8.75 16.875L24.1475 16.84L19.8137 21.1738C19.462 21.5253 19.2643 22.0022 19.2642 22.4996C19.2641 22.9969 19.4615 23.4739 19.8131 23.8256C20.1647 24.1774 20.6416 24.375 21.1389 24.3752C21.6363 24.3753 22.1133 24.1778 22.465 23.8263L28.1975 18.0938C29.017 17.273 29.4777 16.1607 29.4784 15.0008C29.4791 13.8409 29.0198 12.728 28.2013 11.9063Z" fill="#FF0000"/>
</g>
<defs>
<clipPath id="clip0_9_357">
<rect width="30" height="30" fill="white"/>
</clipPath>
</defs>
</svg>
