<svg width="23" height="23" viewBox="0 0 23 23" fill="none" xmlns="http://www.w3.org/2000/svg">
<path d="M11.5 15.3323C13.6163 15.3323 15.3319 13.6167 15.3319 11.5004C15.3319 9.38406 13.6163 7.66846 11.5 7.66846C9.38369 7.66846 7.66809 9.38406 7.66809 11.5004C7.66809 13.6167 9.38369 15.3323 11.5 15.3323Z" fill="black"/>
<path d="M22.2973 9.02763C20.8115 6.60778 17.4318 2.54785 11.5 2.54785C5.56818 2.54785 2.18843 6.60778 0.702609 9.02763C-0.234203 10.5429 -0.234203 12.4574 0.702609 13.9727C2.18843 16.3926 5.56818 20.4525 11.5 20.4525C17.4318 20.4525 20.8115 16.3926 22.2973 13.9727C23.2342 12.4574 23.2342 10.5429 22.2973 9.02763ZM11.5 17.248C8.32554 17.248 5.75211 14.6746 5.75211 11.5002C5.75211 8.32572 8.32554 5.75229 11.5 5.75229C14.6744 5.75229 17.2478 8.32572 17.2478 11.5002C17.2447 14.6733 14.6731 17.2448 11.5 17.248Z" fill="black"/>
</svg>
