<svg width="22" height="22" viewBox="0 0 22 22" fill="none" xmlns="http://www.w3.org/2000/svg">
<path d="M8.69548 10.6994C5.85067 10.6994 3.53717 8.38594 3.53717 5.54113C3.53717 2.69632 5.85067 0.382812 8.69548 0.382812C11.5403 0.382812 13.8538 2.69632 13.8538 5.54113C13.8538 8.38594 11.5403 10.6994 8.69548 10.6994ZM19.442 12.4189H14.2837C13.099 12.4189 12.1344 13.3826 12.1344 14.5682V21.0161H21.5913V14.5682C21.5913 13.3826 20.6267 12.4189 19.442 12.4189ZM18.1524 16.7175H15.5732V14.998H18.1524V16.7175ZM10.4149 13.9191L8.69548 15.8535L5.64262 12.4189H5.25661C2.88636 12.4189 0.958008 14.3472 0.958008 16.7175V21.0161H10.4149V13.9191Z" fill="#FF0000"/>
</svg>
