<svg width="27" height="36" viewBox="0 0 27 36" fill="none" xmlns="http://www.w3.org/2000/svg">
<path fill-rule="evenodd" clip-rule="evenodd" d="M14.7191 0.67766C14.4195 0.254612 13.93 0 13.4098 0C12.8854 0 12.3996 0.248568 12.0942 0.67766C8.84916 5.20322 0.714355 17.1153 0.714355 22.7306C0.714355 29.7374 6.39928 35.4144 13.4032 35.4144C20.4206 35.4144 26.099 29.7374 26.099 22.7306C26.1045 17.1153 17.966 5.20322 14.7191 0.67766ZM7.90706 27.8413C7.69098 28.1041 7.3745 28.236 7.0588 28.236C6.80645 28.236 6.55463 28.1503 6.34487 27.9769C3.19998 25.3261 4.28271 21.4149 4.33292 21.2478C4.50273 20.6581 5.11257 20.3221 5.70217 20.4881C6.29203 20.6579 6.62981 21.2693 6.46237 21.8537C6.4303 21.9825 5.74817 24.5773 7.77615 26.2807C8.24063 26.6778 8.30161 27.3767 7.90706 27.8413Z" fill="#FF0000"/>
</svg>
