<svg width="30" height="30" viewBox="0 0 30 30" fill="none" xmlns="http://www.w3.org/2000/svg">
<path d="M19.7863 2.5C19.27 1.045 17.88 0 16.25 0H13.75C12.12 0 10.73 1.045 10.2137 2.5H3.75V26.25C3.75 28.3175 5.4325 30 7.5 30H22.5C24.5675 30 26.25 28.3175 26.25 26.25V2.5H19.7863ZM23.75 26.25C23.75 26.9387 23.19 27.5 22.5 27.5H7.5C6.81 27.5 6.25 26.9387 6.25 26.25V5H12.5V3.75C12.5 3.06125 13.06 2.5 13.75 2.5H16.25C16.94 2.5 17.5 3.06125 17.5 3.75V5H23.75V26.25ZM9.3025 14.3888L7.515 12.6962L9.23375 10.8813L10.8337 12.3975L14.0188 9.21375L15.7862 10.9812L12.4213 14.3463C11.9825 14.7863 11.4113 15.0063 10.84 15.0063C10.29 15.0063 9.7375 14.8012 9.3025 14.3888ZM15.7875 18.48L12.4225 21.845C11.9837 22.285 11.4125 22.505 10.8413 22.505C10.2913 22.505 9.73875 22.3 9.30375 21.8875L7.51625 20.195L9.235 18.38L10.835 19.8962L14.02 16.7125L15.7875 18.48ZM15 15L17.5525 12.5H21.25V15H15ZM17.5525 20H21.25V22.5H15L17.5525 20Z" fill="white"/>
</svg>
