<svg width="30" height="30" viewBox="0 0 30 30" fill="none" xmlns="http://www.w3.org/2000/svg">
<g clip-path="url(#clip0_410_63)">
<path d="M15 7.5H11.25V11.25H7.5V15H11.25V18.75H15V15H18.75V11.25H15V7.5Z" fill="black"/>
<path d="M23.6499 21.0051C27.9919 15.2025 26.8079 6.97862 21.0052 2.63659C15.2026 -1.70544 6.97868 -0.521378 2.63665 5.28128C-1.70538 11.0839 -0.521317 19.3078 5.28134 23.6498C9.94241 27.1376 16.3442 27.1376 21.0052 23.6498L27.3554 30L30 27.3603L23.6499 21.0051ZM13.1907 22.5292C8.03325 22.5292 3.85224 18.3482 3.85224 13.1907C3.85224 8.03319 8.03325 3.85218 13.1907 3.85218C18.3482 3.85218 22.5292 8.03319 22.5292 13.1907C22.5244 18.3462 18.3463 22.5244 13.1907 22.5292Z" fill="black"/>
</g>
<defs>
<clipPath id="clip0_410_63">
<rect width="30" height="30" fill="white"/>
</clipPath>
</defs>
</svg>
