<svg width="31" height="30" viewBox="0 0 31 30" fill="none" xmlns="http://www.w3.org/2000/svg">
<g clip-path="url(#clip0_65_82)">
<g clip-path="url(#clip1_65_82)">
<path d="M21.4338 18.4038L11.6687 28.1688C10.4887 29.3488 8.92 29.9988 7.25 29.9988C5.58 29.9988 4.01125 29.3488 2.83125 28.1688C1.65125 26.9888 1 25.4188 1 23.7488C1 22.0788 1.65125 20.5101 2.83125 19.3288L12.5963 9.56382L21.435 18.4026L21.4338 18.4038ZM30.6338 11.6163L19.3837 0.366318C18.895 -0.122432 18.105 -0.122432 17.6163 0.366318C17.1275 0.855068 17.1275 1.64507 17.6163 2.13382L18.8225 3.34007L14.3638 7.79882L23.2025 16.6376L27.6613 12.1788L28.8675 13.3851C29.1112 13.6288 29.4312 13.7513 29.7512 13.7513C30.0712 13.7513 30.3913 13.6288 30.635 13.3851C31.1238 12.8963 31.1238 12.1063 30.635 11.6176L30.6338 11.6163ZM29.535 28.5351C30.48 27.5913 31 26.3351 31 25.0001C31 23.6651 30.48 22.4088 29.615 21.5513L28.0312 19.6376L27.9425 19.5413L27.385 18.8738C26.6775 18.0263 25.3787 18.0151 24.6562 18.8513L24.06 19.5413L23.97 19.6388L22.4663 21.4651C21.5212 22.4088 21.0012 23.6651 21.0012 25.0001C21.0012 26.3351 21.5212 27.5913 22.4663 28.5351C23.4113 29.4801 24.6663 30.0001 26.0012 30.0001C27.3362 30.0001 28.5913 29.4801 29.5363 28.5351H29.535Z" fill="white"/>
</g>
</g>
<defs>
<clipPath id="clip0_65_82">
<rect width="30" height="30" fill="white" transform="translate(0.888672)"/>
</clipPath>
<clipPath id="clip1_65_82">
<rect width="30" height="30" fill="white" transform="translate(1)"/>
</clipPath>
</defs>
</svg>
