<svg width="63" height="63" viewBox="0 0 63 63" fill="none" xmlns="http://www.w3.org/2000/svg">
<g clip-path="url(#clip0_125_4)">
<path d="M56.5504 18.648C56.5871 19.2019 56.5871 19.7584 56.5871 20.3175C56.5871 37.3984 43.5829 57.0938 19.8109 57.0938V57.0833C12.789 57.0938 5.9115 55.083 0 51.2899C1.02112 51.4133 2.0475 51.4737 3.0765 51.4763C8.89875 51.4815 14.553 49.5285 19.1284 45.9323C13.5975 45.8273 8.7465 42.2205 7.05338 36.9548C8.99063 37.3275 10.9856 37.2514 12.8888 36.7343C6.8565 35.5163 2.52 30.2164 2.52 24.0634C2.52 24.0083 2.52 23.9532 2.52 23.9007C4.31813 24.9034 6.32888 25.4573 8.38688 25.5177C2.70638 21.7245 0.952875 14.1698 4.38375 8.26354C10.9462 16.338 20.6299 21.2468 31.0222 21.7692C29.9801 17.2804 31.4055 12.5764 34.7603 9.41854C39.9656 4.52291 48.153 4.77491 53.0486 9.98029C55.944 9.41066 58.7186 8.34754 61.257 6.84342C60.291 9.83592 58.2724 12.3769 55.5739 13.9939C58.1385 13.6868 60.6401 13.0017 63 11.9569C61.2649 14.553 59.0809 16.8184 56.5504 18.648Z" fill="white"/>
</g>
<defs>
<clipPath id="clip0_125_4">
<rect width="63" height="63" fill="white"/>
</clipPath>
</defs>
</svg>
