<svg width="25" height="24" viewBox="0 0 25 24" fill="none" xmlns="http://www.w3.org/2000/svg">
<g clip-path="url(#clip0_90_296)">
<path d="M24.5 7V8H0.5V7C0.5 4.239 2.739 2 5.5 2H6.5V1C6.5 0.448 6.948 0 7.5 0C8.052 0 8.5 0.448 8.5 1V2H16.5V1C16.5 0.448 16.948 0 17.5 0C18.052 0 18.5 0.448 18.5 1V2H19.5C22.261 2 24.5 4.239 24.5 7ZM0.5 10V16H8.448L6.877 14.429C6.486 14.038 6.486 13.406 6.877 13.015C7.268 12.624 7.9 12.624 8.291 13.015L10.95 15.674C11.681 16.405 11.681 17.594 10.95 18.325L8.291 20.984C8.096 21.179 7.84 21.277 7.584 21.277C7.328 21.277 7.072 21.179 6.877 20.984C6.486 20.593 6.486 19.961 6.877 19.57L8.448 17.999H0.5V18.999C0.5 21.76 2.739 23.999 5.5 23.999H19.5C22.261 23.999 24.5 21.76 24.5 18.999V9.999H0.5V10Z" fill="black"/>
</g>
<defs>
<clipPath id="clip0_90_296">
<rect width="24" height="24" fill="white" transform="translate(0.5)"/>
</clipPath>
</defs>
</svg>
