<svg width="24" height="24" viewBox="0 0 24 24" fill="none" xmlns="http://www.w3.org/2000/svg">
<g clip-path="url(#clip0_68_18)">
<path d="M19 0H5C2.239 0 0 2.239 0 5V19C0 21.761 2.239 24 5 24H19C21.761 24 24 21.761 24 19V5C24 2.239 21.761 0 19 0ZM12 20C8.978 20 6.36 18.303 5 15.823V18C5 18.552 4.552 19 4 19C3.448 19 3 18.552 3 18V15C3 13.895 3.895 13 5 13H8C8.552 13 9 13.448 9 14C9 14.552 8.552 15 8 15H6.831C7.87 16.787 9.788 18 12 18C14.722 18 17.02 16.177 17.751 13.688C17.873 13.274 18.266 13 18.698 13C19.351 13 19.854 13.622 19.67 14.249C18.697 17.568 15.629 20 11.999 20H12ZM21 9C21 10.105 20.105 11 19 11H16C15.448 11 15 10.552 15 10C15 9.448 15.448 9 16 9H17.185C16.148 7.209 14.215 6 12 6C9.278 6 6.98 7.823 6.249 10.312C6.127 10.726 5.734 11 5.302 11C4.649 11 4.146 10.378 4.33 9.751C5.303 6.432 8.371 4 12.001 4C15.016 4 17.64 5.679 19.001 8.15V6C19.001 5.448 19.449 5 20.001 5C20.553 5 21.001 5.448 21.001 6L21 9Z" fill="black"/>
</g>
<defs>
<clipPath id="clip0_68_18">
<rect width="24" height="24" fill="white"/>
</clipPath>
</defs>
</svg>
